<svg width="400" height="400" viewBox="0 0 400 400" fill="none" xmlns="http://www.w3.org/2000/svg">
<rect width="400" height="400" fill="#35353F"/>
<path d="M200.005 111.999V218.868C188.256 212.118 173.757 209.493 158.382 214.868C141.633 220.868 128.759 235.742 125.759 253.241C124.372 261.115 124.891 269.206 127.271 276.839C129.651 284.471 133.824 291.423 139.44 297.113C145.057 302.803 151.954 307.066 159.555 309.545C167.156 312.024 175.24 312.647 183.131 311.363C207.63 307.488 225.004 284.989 225.004 260.116V136.997H250.002C263.752 136.997 275.001 125.748 275.001 111.999C275.001 98.2494 263.752 87 250.002 87H225.004C211.255 87 200.005 98.2494 200.005 111.999Z" fill="#B2B2B2"/>
</svg>
