<svg width="50" height="50" viewBox="0 0 50 50" fill="none" xmlns="http://www.w3.org/2000/svg">
<path d="M46.9564 47.5441C43.6818 50.8186 38.3921 50.8186 35.1176 47.5441L2.45592 14.8824C-0.81864 11.6079 -0.81864 6.31819 2.45592 3.04363C5.73048 -0.230932 11.0202 -0.230932 14.2948 3.04363L46.9564 35.7053C50.2309 38.8959 50.2309 44.2695 46.9564 47.5441Z" fill="#D35B5B"/>
<path d="M14.2948 46.9564C11.0202 50.2309 5.73048 50.2309 2.45592 46.9564C-0.81864 43.6818 -0.81864 38.3921 2.45592 35.1176L35.1176 2.45592C38.3921 -0.81864 43.6818 -0.81864 46.9564 2.45592C50.2309 5.73048 50.2309 11.0201 46.9564 14.2947L14.2948 46.9564Z" fill="#D35B5B"/>
</svg>
